<?xml version="1.0" encoding="utf-8"?>
<!-- Svg Vector Icons : http://www.onlinewebfonts.com/icon -->
<!DOCTYPE svg PUBLIC "-//W3C//DTD SVG 1.1//EN" "http://www.w3.org/Graphics/SVG/1.1/DTD/svg11.dtd">
<svg version="1.1" xmlns="http://www.w3.org/2000/svg" xmlns:xlink="http://www.w3.org/1999/xlink" x="0px" y="0px" viewBox="0 0 1000 1000" enable-background="new 0 0 1000 1000" xml:space="preserve">
<metadata> Svg Vector Icons : http://www.onlinewebfonts.com/icon </metadata>
<g><path d="M500,108.9c-270.6,0-490,167.5-490,374.1C10,593.6,72.9,693,173,761.5c-38.7,50-84.1,96.6-134.9,129.6c87.6-9.3,173.4-31.8,246.9-72C350,843.4,422.9,857,500,857c270.6,0,490-167.5,490-374.1C990,276.4,770.6,108.9,500,108.9z M499.4,828.6c-77.1-1.6-155.9-18.5-220.8-42.7c-73.5,40.1-80.8,63.6-168.4,73c50.7-33.1,64.8-51.2,103.4-101.2C113.6,689.2,38.9,593.7,38.9,483c0-196.4,223.6-347.6,460.6-347.6C748.8,135.4,960,304.2,960,483C960,667,740,833.6,499.4,828.6z"/></g>
</svg>